<svg width="20" height="20" viewBox="0 0 20 20" fill="none" xmlns="http://www.w3.org/2000/svg">
<path d="M8.11272 10.6975C7.92094 10.5212 7.63317 10.5212 7.4414 10.6975L4.97994 13.1814L3.7332 11.9314C3.57332 11.7711 3.33361 11.7231 3.12579 11.8032C2.90202 11.8833 2.75819 12.0756 2.75819 12.3L2.50242 17.2195C2.48648 17.3798 2.55036 17.54 2.6623 17.6522C2.77425 17.7644 2.91807 17.8125 3.0619 17.8125H3.0939L8.01692 17.5721C8.24069 17.5561 8.44851 17.4118 8.52846 17.2035C8.6084 16.9952 8.56046 16.7548 8.40058 16.5946L7.1378 15.3446L9.61532 12.8769C9.79115 12.7006 9.79115 12.3961 9.61532 12.2039L8.11272 10.6975Z" fill="#EFF0F1"/>
<path d="M17.3441 2.97138C17.2349 2.8618 17.0791 2.79926 16.9231 2.81487L12.1209 3.04964C11.9026 3.06524 11.6998 3.20615 11.6219 3.40948C11.5439 3.61292 11.5906 3.84759 11.7466 4.00409L12.9628 5.22453L10.5617 7.63408C10.3746 7.8062 10.3746 8.10351 10.5617 8.29124L12.0273 9.76206C12.2144 9.93418 12.4951 9.93418 12.6822 9.76206L15.0833 7.33679L16.2994 8.55723C16.4086 8.66681 16.5489 8.71375 16.6892 8.71375C16.7516 8.71375 16.8295 8.69814 16.892 8.68242C17.0947 8.60417 17.235 8.41644 17.2505 8.18167L17.5 3.37812C17.5 3.22182 17.4533 3.08091 17.3441 2.97144L17.3441 2.97138Z" fill="#EFF0F1"/>
</svg>
