<svg width="20" height="20" viewBox="0 0 20 20" fill="none" xmlns="http://www.w3.org/2000/svg">
<path d="M10 6.75V1.875H5.07812C4.17203 1.875 3.4375 2.60254 3.4375 3.5V16.5C3.4375 17.3975 4.17203 18.125 5.07812 18.125H14.9219C15.828 18.125 16.5625 17.3975 16.5625 16.5V8.375H11.6406C10.7345 8.375 10 7.64746 10 6.75ZM5.48828 6.95312C5.48828 6.61658 5.76373 6.34375 6.10352 6.34375H8.1543C8.49407 6.34375 8.76953 6.61658 8.76953 6.95312V8.98438C8.76953 9.32091 8.49407 9.59375 8.1543 9.59375H7.74414V11.7788L9.0244 13.0469H11.2305V12.6406C11.2305 12.3041 11.5059 12.0312 11.8457 12.0312H13.8965C14.2363 12.0312 14.5117 12.3041 14.5117 12.6406V14.6719C14.5117 15.0084 14.2363 15.2812 13.8965 15.2812H11.8457C11.5059 15.2812 11.2305 15.0084 11.2305 14.6719V14.2656H9.0244L7.56394 15.7121C7.32368 15.9501 6.93413 15.9501 6.69387 15.7121L5.05324 14.0871C4.81298 13.8491 4.81298 13.4634 5.05324 13.2254L6.51367 11.7788V9.59375H6.10352C5.76373 9.59375 5.48828 9.32091 5.48828 8.98438V6.95312ZM11.2305 6.75V2.28125L16.1523 7.15625H11.6406C11.4141 7.15625 11.2305 6.97436 11.2305 6.75Z" fill="#EFF0F1"/>
</svg>
