<svg width="64" height="64" viewBox="0 0 64 64" fill="none" xmlns="http://www.w3.org/2000/svg">
<path d="M54.9397 26.0834V13.7377C54.9354 12.6741 54.6014 11.638 53.984 10.7725C53.3665 9.90707 52.496 9.25494 51.4926 8.90618L32.6972 2.29136C31.5783 1.90288 30.3614 1.90288 29.2425 2.29136L10.4471 8.90618C9.44371 9.25494 8.57319 9.90707 7.95572 10.7725C7.33826 11.638 7.00432 12.6741 7 13.7377V37.103C7 48.8008 17.3945 54.8365 25.7497 59.7138L28.2989 61.2379C28.99 61.667 29.7718 61.928 30.5818 62H30.947C31.887 61.99 32.807 61.7268 33.6103 61.2379C34.4398 60.7426 35.292 60.2396 36.1595 59.7138C43.0841 55.6976 51.3785 50.8661 54.0342 42.7271C55.8268 41.3388 57.2911 39.571 58.3224 37.5501C59.3537 35.5292 59.9266 33.3052 60 31.0369C60 30.8844 60 30.732 60 30.5796V27.3408L54.9397 26.0834ZM35.3986 58.3954L32.8266 59.9195C32.2476 60.2659 31.5833 60.4428 30.909 60.4301V56.6197L12.981 42.2318C11.6473 41.1555 10.5592 39.8055 9.78998 38.2728C9.02081 36.7401 8.58841 35.0601 8.5219 33.346V13.7377C8.52541 12.9902 8.76093 12.2622 9.19584 11.6546C9.63074 11.047 10.2435 10.5899 10.9493 10.3465L29.7447 3.73169C30.5368 3.44726 31.4029 3.44726 32.195 3.73169L50.9904 10.3465C51.6956 10.5909 52.3077 11.0482 52.7425 11.6556C53.1772 12.263 53.4132 12.9904 53.4178 13.7377V25.7023L50.0925 24.8793C49.4136 24.7116 48.8187 24.3027 48.4184 23.7286L45.2909 19.2552C44.3227 17.8664 43.034 16.7324 41.5342 15.9496C40.0345 15.1668 38.3682 14.7583 36.677 14.7589H23.4973C22.489 14.759 21.4958 15.0037 20.6026 15.4722C19.7093 15.9407 18.9428 16.619 18.3686 17.4491L11.8701 26.8454C10.3606 29.0355 9.7342 31.7164 10.1167 34.3498C10.4992 36.9833 11.8623 39.3743 13.9322 41.0429L29.2501 53.3123C30.3618 54.1987 31.7404 54.6822 33.1614 54.6841C33.4926 54.6852 33.8234 54.6597 34.1506 54.6079C35.0113 54.467 35.8332 54.1483 36.5642 53.672C37.2952 53.1958 37.9193 52.5724 38.3967 51.8415L40.6795 48.3512C41.1531 47.6332 41.4695 46.8228 41.6079 45.9735C41.6422 45.6569 41.6422 45.3376 41.6079 45.021C41.5342 44.3921 41.3322 43.7851 41.0144 43.2377L36.5172 35.4874C36.4665 35.4009 36.4335 35.3052 36.4198 35.2058C36.4062 35.1065 36.4123 35.0054 36.4377 34.9084C36.4632 34.8114 36.5075 34.7204 36.5681 34.6406C36.6288 34.5608 36.7045 34.4938 36.7911 34.4433C36.8779 34.393 36.9739 34.3603 37.0734 34.3472C37.1729 34.3341 37.274 34.3408 37.3709 34.367C37.4678 34.3932 37.5586 34.4384 37.638 34.4999C37.7174 34.5614 37.7839 34.638 37.8336 34.7253L42.3156 42.5061C42.9278 43.5657 43.2162 44.7819 43.145 46.004H44.6136C44.9104 46.004 45.2072 46.004 45.4963 46.004C47.721 45.8673 49.888 45.2401 51.8426 44.1674C48.7912 50.5993 41.7905 54.6841 35.3986 58.3954ZM39.1348 22.3492C39.496 22.3492 39.8491 22.4565 40.1494 22.6574C40.4498 22.8584 40.6838 23.1441 40.8221 23.4783C40.9603 23.8125 40.9965 24.1802 40.926 24.535C40.8555 24.8898 40.6816 25.2157 40.4262 25.4715C40.1708 25.7273 39.8454 25.9014 39.4911 25.972C39.1368 26.0426 38.7696 26.0064 38.4359 25.8679C38.1022 25.7295 37.817 25.4951 37.6163 25.1943C37.4157 24.8935 37.3085 24.5399 37.3085 24.1782C37.3085 23.9361 37.3565 23.6963 37.4497 23.4729C37.5429 23.2495 37.6795 23.0469 37.8515 22.8767C38.0235 22.7066 38.2275 22.5724 38.4517 22.4818C38.676 22.3912 38.9159 22.3462 39.1576 22.3492H39.1348ZM45.3822 44.4494H45.1463C51.5002 35.5484 51.4622 35.0225 39.2033 16.6489C41.1807 17.2135 42.9033 18.4435 44.081 20.1316L47.2009 24.5973C47.8108 25.4762 48.7199 26.1021 49.7576 26.3577L56.2105 27.9581C56.1618 28.1525 56.1362 28.352 56.1344 28.5525C56.1343 29.1894 56.3837 29.8009 56.8291 30.2555C57.2745 30.7101 57.8803 30.9715 58.5161 30.9835C58.3957 34.4602 56.9856 37.7671 54.5612 40.2585C52.1369 42.7498 48.8723 44.2468 45.405 44.457L45.3822 44.4494Z" fill="white"/>
</svg>