<svg width="20" height="20" viewBox="0 0 20 20" fill="none" xmlns="http://www.w3.org/2000/svg">
<path d="M17.1687 8.15105V4.29304C17.1673 3.96065 17.0629 3.63687 16.87 3.36642C16.677 3.09596 16.405 2.89217 16.0914 2.78318L10.2179 0.716051C9.86822 0.59465 9.48794 0.59465 9.13828 0.716051L3.26472 2.78318C2.95116 2.89217 2.67912 3.09596 2.48616 3.36642C2.29321 3.63687 2.18885 3.96065 2.1875 4.29304V11.5947C2.1875 15.2503 5.43579 17.1364 8.0468 18.6606L8.84341 19.1369C9.05937 19.271 9.30369 19.3525 9.5568 19.375H9.67094C9.96469 19.3719 10.2522 19.2896 10.5032 19.1369C10.7624 18.9821 11.0288 18.8249 11.2998 18.6606C13.4638 17.4055 16.0558 15.8956 16.8857 13.3522C17.4459 12.9184 17.9035 12.3659 18.2258 11.7344C18.548 11.1029 18.7271 10.4079 18.75 9.69902C18.75 9.65139 18.75 9.60376 18.75 9.55613V8.544L17.1687 8.15105ZM11.0621 18.2486L10.2583 18.7249C10.0774 18.8331 9.86977 18.8884 9.65905 18.8844V17.6937L4.05658 13.1974C3.63977 12.8611 3.29974 12.4392 3.05937 11.9602C2.819 11.4813 2.68388 10.9563 2.66309 10.4206V4.29304C2.66419 4.05943 2.73779 3.83194 2.8737 3.64207C3.00961 3.4522 3.2011 3.30934 3.42166 3.23328L9.29523 1.16615C9.54274 1.07727 9.81341 1.07727 10.0609 1.16615L15.9345 3.23328C16.1549 3.30964 16.3462 3.45258 16.482 3.64238C16.6179 3.83218 16.6916 4.05951 16.6931 4.29304V8.03198L15.6539 7.77478C15.4417 7.72238 15.2558 7.59459 15.1307 7.41517L14.1534 6.01724C13.8509 5.58326 13.4481 5.22889 12.9794 4.98425C12.5108 4.73962 11.9901 4.61197 11.4615 4.61216H7.34292C7.02782 4.61217 6.71743 4.68866 6.4383 4.83506C6.15917 4.98147 5.91962 5.19344 5.74017 5.45283L3.7094 8.3892C3.23768 9.0736 3.04194 9.91137 3.16147 10.7343C3.281 11.5573 3.70696 12.3045 4.35382 12.8259L9.14066 16.6601C9.48807 16.9371 9.91887 17.0882 10.3629 17.0888C10.4664 17.0891 10.5698 17.0812 10.6721 17.065C10.941 17.0209 11.1979 16.9213 11.4263 16.7725C11.6548 16.6237 11.8498 16.4289 11.999 16.2005L12.7124 15.1098C12.8603 14.8854 12.9592 14.6321 13.0025 14.3667C13.0132 14.2678 13.0132 14.168 13.0025 14.069C12.9794 13.8725 12.9163 13.6828 12.817 13.5118L11.4116 11.0898C11.3958 11.0628 11.3855 11.0329 11.3812 11.0018C11.3769 10.9708 11.3788 10.9392 11.3868 10.9089C11.3947 10.8786 11.4086 10.8501 11.4275 10.8252C11.4465 10.8002 11.4702 10.7793 11.4972 10.7635C11.5244 10.7478 11.5543 10.7376 11.5854 10.7335C11.6165 10.7294 11.6481 10.7315 11.6784 10.7397C11.7087 10.7479 11.7371 10.762 11.7619 10.7812C11.7867 10.8004 11.8075 10.8244 11.823 10.8517L13.2236 13.2832C13.4149 13.6143 13.5051 13.9943 13.4828 14.3763H13.9418C14.0345 14.3763 14.1272 14.3763 14.2176 14.3763C14.9128 14.3335 15.59 14.1375 16.2008 13.8023C15.2473 15.8123 13.0595 17.0888 11.0621 18.2486ZM12.2296 6.98412C12.3425 6.98412 12.4528 7.01765 12.5467 7.08045C12.6406 7.14325 12.7137 7.23252 12.7569 7.33696C12.8001 7.44139 12.8114 7.55631 12.7894 7.66719C12.7674 7.77806 12.713 7.8799 12.6332 7.95983C12.5534 8.03977 12.4517 8.0942 12.341 8.11626C12.2303 8.13831 12.1155 8.12699 12.0112 8.08373C11.9069 8.04047 11.8178 7.96721 11.7551 7.87322C11.6924 7.77923 11.6589 7.66872 11.6589 7.55568C11.6589 7.48002 11.6739 7.40511 11.703 7.33529C11.7322 7.26548 11.7748 7.20215 11.8286 7.14898C11.8823 7.09581 11.9461 7.05386 12.0162 7.02556C12.0862 6.99726 12.1612 6.98318 12.2368 6.98412H12.2296ZM14.1819 13.8904H14.1082C16.0938 11.1089 16.0819 10.9445 12.251 5.20277C12.869 5.37923 13.4073 5.76359 13.7753 6.29111L14.7503 7.68666C14.9409 7.96131 15.225 8.15691 15.5493 8.23679L17.5658 8.7369C17.5505 8.79766 17.5426 8.86001 17.542 8.92265C17.542 9.12169 17.6199 9.31278 17.7591 9.45485C17.8983 9.59692 18.0876 9.67861 18.2863 9.68235C18.2486 10.7688 17.808 11.8022 17.0504 12.5808C16.2928 13.3593 15.2726 13.8271 14.1891 13.8928L14.1819 13.8904Z" fill="#427DDC"/>
</svg>
