<svg width="64" height="64" viewBox="0 0 64 64" fill="none" xmlns="http://www.w3.org/2000/svg">
<path d="M51.565 9.03014L44.2467 16.3483C44.0168 16.578 43.7162 16.7239 43.3936 16.7625C43.0707 16.8011 42.7445 16.7301 42.4668 16.5611C39.5881 14.8245 36.2681 13.9584 32.9078 14.0674C29.5474 14.1764 26.2906 15.2558 23.5305 17.1754C21.8329 18.357 20.3589 19.831 19.1773 21.5286C17.26 24.2904 16.1815 27.5474 16.0717 30.9078C15.9619 34.2681 16.8253 37.5886 18.5582 40.4699C18.726 40.747 18.7962 41.0722 18.7576 41.3941C18.719 41.7157 18.5739 42.0153 18.3453 42.2449L11.0271 49.563C10.8798 49.7113 10.7021 49.8262 10.5063 49.8993C10.3104 49.9727 10.1011 50.0027 9.89254 49.9877C9.68399 49.9725 9.48118 49.9125 9.298 49.8117C9.1148 49.7108 8.95559 49.5716 8.83123 49.4034C4.87163 43.9608 2.82532 37.3605 3.01169 30.6326C3.19807 23.9047 5.60665 17.4278 9.86147 12.2128C11.1604 10.6172 12.619 9.15854 14.2147 7.85961C19.4293 3.60593 25.9052 1.19807 32.6321 1.01169C39.359 0.825323 45.9583 2.87094 51.4004 6.82935C51.5698 6.9533 51.7101 7.11249 51.8117 7.29592C51.9136 7.47935 51.9743 7.68264 51.99 7.89183C52.0058 8.10102 51.9758 8.31112 51.9024 8.50763C51.829 8.70414 51.7139 8.88241 51.565 9.03014Z" fill="url(#paint0_linear_25_596)"/>
<path d="M51.5587 53.9167L44.2404 46.5984C44.0105 46.3687 43.7099 46.2229 43.3873 46.1843C43.0646 46.1457 42.7382 46.2166 42.4605 46.3855C39.7462 48.0229 36.6363 48.8884 33.4665 48.8884C30.2964 48.8884 27.1866 48.0229 24.4722 46.3855C24.1946 46.2166 23.8682 46.1457 23.5454 46.1843C23.2227 46.2229 22.9222 46.3687 22.6923 46.5984L15.3741 53.9167C15.2206 54.064 15.1015 54.2437 15.0252 54.4423C14.9488 54.641 14.9172 54.8541 14.9324 55.0665C14.9476 55.2789 15.0094 55.4852 15.1133 55.6709C15.2172 55.8569 15.3607 56.0175 15.5337 56.1414C20.743 59.9317 27.0194 61.9732 33.4616 61.9732C39.9037 61.9732 46.1801 59.9317 51.3895 56.1414C51.563 56.0182 51.7073 55.8582 51.8122 55.6727C51.9169 55.4872 51.9796 55.2812 51.9959 55.0688C52.0119 54.8564 51.9812 54.643 51.9057 54.4441C51.83 54.2449 51.7116 54.0648 51.5587 53.9167Z" fill="white"/>
<path d="M33.4797 40.181C38.2879 40.181 42.1861 36.283 42.1861 31.4746C42.1861 26.6663 38.2879 22.7683 33.4797 22.7683C28.6712 22.7683 24.7733 26.6663 24.7733 31.4746C24.7733 36.283 28.6712 40.181 33.4797 40.181Z" fill="white"/>
<defs>
<linearGradient id="paint0_linear_25_596" x1="44.687" y1="-3.46833" x2="-17.0315" y2="58.2549" gradientUnits="userSpaceOnUse">
<stop stop-color="#17CCFC"/>
<stop offset="0.5" stop-color="#5D31FF"/>
<stop offset="1" stop-color="#F35AFF"/>
</linearGradient>
</defs>
</svg>