<svg width="20" height="20" viewBox="0 0 20 20" fill="none" xmlns="http://www.w3.org/2000/svg">
<path d="M5.77672 6.13193C5.55905 5.95115 5.27865 5.86393 4.99684 5.88934C4.71504 5.91474 4.45476 6.05071 4.27293 6.26751L1.60322 9.47116C1.44255 9.66291 1.35449 9.9051 1.35449 10.1553C1.35449 10.4054 1.44255 10.6476 1.60322 10.8394L4.27293 14.043C4.36249 14.1515 4.47262 14.2413 4.59698 14.3071C4.72134 14.3729 4.85748 14.4135 4.99757 14.4265C5.13767 14.4395 5.27896 14.4247 5.41331 14.3829C5.54767 14.3412 5.67244 14.2732 5.78046 14.1831C5.88848 14.0929 5.97761 13.9823 6.04273 13.8576C6.10786 13.7329 6.14769 13.5965 6.15993 13.4563C6.17218 13.3162 6.1566 13.175 6.11409 13.0408C6.07158 12.9067 6.00298 12.7823 5.91223 12.6748L3.81198 10.1553L5.91228 7.63576C6.09366 7.41834 6.18127 7.13778 6.15585 6.85578C6.13043 6.57378 5.99406 6.31342 5.77672 6.13193Z" fill="#EFF0F1"/>
<path d="M11.1745 3.76882C10.8971 3.7163 10.6102 3.77471 10.3754 3.9315C10.1406 4.0883 9.97673 4.33095 9.91896 4.6073L7.78318 15.2861C7.75548 15.4236 7.75521 15.5653 7.7824 15.7029C7.80958 15.8405 7.86368 15.9714 7.94158 16.0881C8.01949 16.2047 8.11967 16.3048 8.23638 16.3827C8.35308 16.4605 8.48401 16.5145 8.62165 16.5416C8.69095 16.5559 8.76155 16.5629 8.8323 16.5625C9.07894 16.5621 9.31782 16.4763 9.50833 16.3196C9.69883 16.163 9.82919 15.9452 9.87723 15.7033L12.013 5.02442C12.0407 4.8869 12.041 4.74526 12.0138 4.60763C11.9866 4.47 11.9325 4.33909 11.8546 4.22242C11.7767 4.10576 11.6765 4.00563 11.5598 3.92779C11.4431 3.84994 11.3122 3.79592 11.1745 3.76882Z" fill="#EFF0F1"/>
<path d="M18.1931 9.4712L15.5234 6.26756C15.4339 6.15904 15.3237 6.0693 15.1994 6.0035C15.075 5.93769 14.9389 5.89711 14.7988 5.88409C14.6587 5.87108 14.5174 5.88588 14.383 5.92766C14.2487 5.96943 14.1239 6.03734 14.0159 6.1275C13.9079 6.21766 13.8188 6.32827 13.7536 6.45299C13.6885 6.57771 13.6487 6.71408 13.6364 6.85424C13.6242 6.99441 13.6398 7.13561 13.6823 7.26973C13.7248 7.40385 13.7934 7.52825 13.8841 7.63577L15.9844 10.1553L13.8841 12.6749C13.7933 12.7824 13.7247 12.9068 13.6822 13.0409C13.6397 13.1751 13.6241 13.3163 13.6364 13.4564C13.6486 13.5966 13.6885 13.7329 13.7536 13.8577C13.8187 13.9824 13.9078 14.093 14.0158 14.1832C14.1239 14.2733 14.2486 14.3412 14.383 14.383C14.5174 14.4248 14.6586 14.4396 14.7987 14.4266C14.9388 14.4136 15.075 14.373 15.1993 14.3072C15.3237 14.2414 15.4338 14.1516 15.5234 14.0431L18.1931 10.8394C18.3538 10.6477 18.4419 10.4055 18.4419 10.1553C18.4419 9.90514 18.3538 9.66296 18.1931 9.4712Z" fill="#EFF0F1"/>
</svg>
