<svg width="64" height="64" viewBox="0 0 64 64" fill="none" xmlns="http://www.w3.org/2000/svg">
<path d="M31.5625 61C28.1128 61 24.9454 59.0228 23.4087 55.8975C23.1892 55.5148 23.4087 55.0365 23.7851 54.8132H23.8164L25.5726 54.1116C25.9489 53.9522 26.3566 54.1116 26.5134 54.4943C27.9874 57.3326 31.4998 58.4169 34.2595 56.8542C35.2631 56.3121 36.0471 55.451 36.5802 54.4943C36.737 54.1116 37.1761 53.9522 37.521 54.1116L39.2772 54.8132C39.7163 54.9727 39.8731 55.451 39.7163 55.8337V55.8975C38.1796 59.0228 35.0122 61 31.5625 61ZM42.3506 17.6607H33.256V12.4944C36.0157 11.5377 37.4897 8.44434 36.5802 5.66986C35.6394 2.86349 32.5974 1.36463 29.869 2.25756C27.1407 3.1505 25.604 6.30767 26.5134 9.11404C27.0466 10.6767 28.2696 11.9523 29.8377 12.4944V17.6607H20.7431C12.0562 17.7245 5 24.8361 5 33.6379C5 42.4716 12.0562 49.5832 20.6804 49.5832H42.3192C51.0061 49.5832 57.9996 42.4078 57.9996 33.606C58.0623 24.8361 51.0061 17.7245 42.3506 17.6607ZM31.5625 5.5104C32.6288 5.5104 33.4755 6.37145 33.4755 7.45573C33.4755 8.54001 32.6288 9.40105 31.5625 9.40105C30.4962 9.40105 29.6495 8.54001 29.6495 7.45573C29.6495 6.37145 30.4962 5.5104 31.5625 5.5104ZM42.3506 46.139H29.3359C25.3217 46.139 21.5585 44.098 19.2691 40.7495C23.1265 41.6743 27.0152 39.1868 27.8933 35.2005C28.8028 31.278 26.3566 27.3554 22.4365 26.4306C18.5792 25.5377 14.6905 27.9933 13.8124 31.9796C13.7183 32.5217 13.6556 33.0639 13.6556 33.606C13.6556 38.4534 15.8194 43.0137 19.5514 46.0433C12.7461 45.3736 7.82246 39.2506 8.5124 32.3623C9.13961 26.016 14.4396 21.1687 20.7117 21.1049H33.7578C37.7719 21.1049 41.5352 23.1459 43.8245 26.4944C43.2914 26.3987 42.7583 26.3349 42.2252 26.3349C38.2423 26.3349 35.0122 29.6197 35.0122 33.6698C35.0122 37.7199 38.2423 41.0046 42.2252 41.0046C46.208 41.0046 49.4381 37.7199 49.4381 33.6698C49.4381 28.8224 47.2742 24.2621 43.5423 21.2325C50.3162 21.934 55.2398 28.057 54.5813 34.9454C53.9227 41.2916 48.6855 46.139 42.3506 46.139ZM17.0425 33.6379C17.0425 31.4693 18.736 29.7472 20.8685 29.7472C23.001 29.7472 24.6945 31.4693 24.6945 33.6379C24.6945 35.8064 23.001 37.5285 20.8685 37.5285C18.736 37.5285 17.0425 35.8064 17.0425 33.6379ZM46.0198 33.6379C46.0198 35.8064 44.3263 37.5285 42.1938 37.5285C40.0613 37.5285 38.3678 35.8064 38.3678 33.6379C38.3678 31.4693 40.0613 29.7472 42.1938 29.7472C44.3263 29.7472 46.0198 31.5012 46.0198 33.6379Z" fill="url(#paint0_linear_25_535)"/>
<defs>
<linearGradient id="paint0_linear_25_535" x1="12.1089" y1="63.8509" x2="42.4749" y2="18.109" gradientUnits="userSpaceOnUse">
<stop stop-color="#0EA5E9"/>
<stop offset="1" stop-color="#1D4ED8"/>
</linearGradient>
</defs>
</svg>