<svg width="20" height="20" viewBox="0 0 20 20" fill="none" xmlns="http://www.w3.org/2000/svg">
<path d="M9.86329 19.0625C8.78526 19.0625 7.79544 18.4446 7.31523 17.468C7.24663 17.3484 7.31523 17.1989 7.43283 17.1291H7.44263L7.99144 16.9099C8.10905 16.8601 8.23645 16.9099 8.28545 17.0295C8.74606 17.9164 9.84369 18.2553 10.7061 17.7669C11.0197 17.5975 11.2647 17.3285 11.4313 17.0295C11.4803 16.9099 11.6175 16.8601 11.7253 16.9099L12.2741 17.1291C12.4113 17.179 12.4603 17.3284 12.4113 17.448V17.468C11.9311 18.4446 10.9413 19.0625 9.86329 19.0625ZM13.2346 5.51897H10.3925V3.90451C11.2549 3.60554 11.7155 2.63885 11.4313 1.77183C11.1373 0.894839 10.1867 0.426446 9.33407 0.705489C8.48145 0.984531 8.00124 1.97115 8.28545 2.84814C8.45205 3.33646 8.83426 3.73509 9.32427 3.90451V5.51897H6.48221C3.76755 5.5389 1.5625 7.76128 1.5625 10.5118C1.5625 13.2724 3.76755 15.4947 6.46261 15.4947H13.2248C15.9394 15.4947 18.1249 13.2524 18.1249 10.5019C18.1445 7.76128 15.9394 5.5389 13.2346 5.51897ZM9.86329 1.722C10.1965 1.722 10.4611 1.99108 10.4611 2.32991C10.4611 2.66875 10.1965 2.93783 9.86329 2.93783C9.53008 2.93783 9.26547 2.66875 9.26547 2.32991C9.26547 1.99108 9.53008 1.722 9.86329 1.722ZM13.2346 14.4184H9.16747C7.91304 14.4184 6.73702 13.7806 6.0216 12.7342C7.22703 13.0232 8.44225 12.2459 8.71666 11.0002C9.00087 9.77437 8.23645 8.54858 7.01142 8.25957C5.80599 7.98053 4.59077 8.74789 4.31636 9.99362C4.28696 10.163 4.26736 10.3325 4.26736 10.5019C4.26736 12.0167 4.94358 13.4418 6.1098 14.3885C3.98315 14.1793 2.44452 12.2658 2.66012 10.1132C2.85613 8.13001 4.51237 6.61521 6.47241 6.59528H10.5493C11.8037 6.59528 12.9798 7.23309 13.6952 8.2795C13.5286 8.2496 13.362 8.22967 13.1954 8.22967C11.9507 8.22967 10.9413 9.25615 10.9413 10.5218C10.9413 11.7875 11.9507 12.8139 13.1954 12.8139C14.44 12.8139 15.4494 11.7875 15.4494 10.5218C15.4494 9.007 14.7732 7.58189 13.607 6.63514C15.7238 6.85439 17.2625 8.76783 17.0566 10.9204C16.8508 12.9036 15.2142 14.4184 13.2346 14.4184ZM5.32578 10.5118C5.32578 9.83417 5.855 9.29601 6.52141 9.29601C7.18783 9.29601 7.71704 9.83417 7.71704 10.5118C7.71704 11.1895 7.18783 11.7277 6.52141 11.7277C5.855 11.7277 5.32578 11.1895 5.32578 10.5118ZM14.3812 10.5118C14.3812 11.1895 13.852 11.7277 13.1856 11.7277C12.5191 11.7277 11.9899 11.1895 11.9899 10.5118C11.9899 9.83417 12.5191 9.29601 13.1856 9.29601C13.852 9.29601 14.3812 9.84413 14.3812 10.5118Z" fill="white"/>
</svg>
