<svg width="64" height="64" viewBox="0 0 64 64" fill="none" xmlns="http://www.w3.org/2000/svg">
<path fill-rule="evenodd" clip-rule="evenodd" d="M6.02809 4C5.58081 4 5.31589 4.49419 5.5567 4.87112L15.5965 20.5856C16.4267 21.8851 17.858 22.6715 19.4001 22.6715H32.9796C37.9567 22.6715 41.0683 27.0724 41.0501 32C41.0319 36.9276 37.7161 41.2846 32.9796 41.2846H18.4818C17.65 41.2846 16.9787 41.959 16.9787 42.7909V58.4953C16.9787 59.3264 17.6485 60 18.4795 60H36.9991C53.0238 60 60.9903 44.7965 61 32C61.0097 19.2035 53.1365 4 36.9991 4H6.02809ZM12.6151 41.3283H9.0098C6.79525 41.3283 5 43.4174 5 45.9944V53.3902V59.5881C5 59.8115 5.18109 59.9926 5.40447 59.9926H9.0098C11.2243 59.9926 13.0196 57.9035 13.0196 55.3265V41.7328C13.0196 41.5094 12.8385 41.3283 12.6151 41.3283Z" fill="url(#paint0_linear_25_555)"/>
<defs>
<linearGradient id="paint0_linear_25_555" x1="49.6974" y1="2.13762" x2="10.1234" y2="55.2166" gradientUnits="userSpaceOnUse">
<stop offset="0.0364583" stop-color="#409FF8"/>
<stop offset="0.5" stop-color="#1673FF"/>
<stop offset="1" stop-color="#516FF7"/>
</linearGradient>
</defs>
</svg>