<svg width="20" height="20" viewBox="0 0 20 20" fill="none" xmlns="http://www.w3.org/2000/svg">
<path d="M10.0002 12.3084C10.9147 12.3084 11.6931 11.7477 12.0143 10.9476C12.1232 10.6971 12.1776 10.4195 12.1776 10.131C12.1776 9.84251 12.1232 9.56488 12.0143 9.3145C11.6931 8.51428 10.9147 7.95361 10.0002 7.95361C9.08566 7.95361 8.30723 8.51428 7.98605 9.3145C7.87718 9.56488 7.82275 9.84251 7.82275 10.131C7.82275 10.4195 7.87718 10.6971 7.98605 10.9476C8.30723 11.7477 9.08566 12.3084 10.0002 12.3084Z" fill="#EFF0F1"/>
<path d="M17.6209 9.31458H13.1626C13.2279 9.57585 13.266 9.84803 13.266 10.1311C13.266 10.4141 13.2279 10.6863 13.1626 10.9476H17.6209C18.0727 10.9476 18.4374 10.5829 18.4374 10.1311C18.4374 9.67928 18.0727 9.31458 17.6209 9.31458Z" fill="#EFF0F1"/>
<path d="M2.37903 10.9476H6.84274C6.77198 10.6863 6.73387 10.4141 6.73387 10.1311C6.73387 9.84803 6.77198 9.57585 6.84274 9.31458H2.37903C1.92721 9.31458 1.5625 9.67928 1.5625 10.1311C1.5625 10.5829 1.92721 10.9476 2.37903 10.9476Z" fill="#EFF0F1"/>
<path d="M8.63902 4.41533C8.63902 4.12681 8.58459 3.84918 8.47572 3.5988C8.15454 2.79858 7.37611 2.23792 6.4616 2.23792C5.54709 2.23792 4.76866 2.79858 4.44748 3.5988C4.3386 3.84918 4.28418 4.12681 4.28418 4.41533C4.28418 4.70382 4.3386 4.98145 4.44748 5.23187C4.76866 6.03205 5.54709 6.59275 6.4616 6.59275C7.37611 6.59275 8.15454 6.03205 8.47572 5.23187C8.58459 4.98145 8.63902 4.70382 8.63902 4.41533Z" fill="#EFF0F1"/>
<path d="M17.6211 3.59875H9.62451C9.68983 3.86003 9.72794 4.13221 9.72794 4.41529C9.72794 4.69833 9.68983 4.97051 9.62451 5.23182H17.6211C18.0729 5.23182 18.4376 4.86708 18.4376 4.41529C18.4376 3.96346 18.0729 3.59875 17.6211 3.59875Z" fill="#EFF0F1"/>
<path d="M2.37903 5.23182H3.30444C3.23367 4.97051 3.19556 4.69833 3.19556 4.41529C3.19556 4.13221 3.23367 3.86003 3.30444 3.59875H2.37903C1.92721 3.59875 1.5625 3.96346 1.5625 4.41529C1.5625 4.86708 1.92721 5.23182 2.37903 5.23182Z" fill="#EFF0F1"/>
<path d="M13.5383 18.0241C14.4528 18.0241 15.2312 17.4634 15.5524 16.6633C15.6613 16.4128 15.7157 16.1352 15.7157 15.8467C15.7157 15.5582 15.6613 15.2806 15.5524 15.0302C15.2312 14.23 14.4528 13.6693 13.5383 13.6693C12.6237 13.6693 11.8453 14.23 11.5241 15.0302C11.4153 15.2806 11.3608 15.5582 11.3608 15.8467C11.3608 16.1352 11.4153 16.4128 11.5241 16.6633C11.8453 17.4634 12.6237 18.0241 13.5383 18.0241Z" fill="#EFF0F1"/>
<path d="M2.37903 16.6633H10.381C10.3103 16.402 10.2722 16.1298 10.2722 15.8468C10.2722 15.5637 10.3103 15.2916 10.381 15.0303H2.37903C1.92721 15.0303 1.5625 15.395 1.5625 15.8468C1.5625 16.2986 1.92721 16.6633 2.37903 16.6633Z" fill="#EFF0F1"/>
<path d="M17.6211 16.6633C18.073 16.6633 18.4377 16.2986 18.4377 15.8468C18.4377 15.395 18.073 15.0303 17.6211 15.0303H16.7012C16.7665 15.2916 16.8046 15.5637 16.8046 15.8468C16.8046 16.1298 16.7665 16.402 16.7012 16.6633H17.6211Z" fill="#EFF0F1"/>
</svg>
