<svg width="20" height="20" viewBox="0 0 20 20" fill="none" xmlns="http://www.w3.org/2000/svg">
<path fill-rule="evenodd" clip-rule="evenodd" d="M9.94324 5C5.04104 5 1.05566 9.95833 1.05566 9.95833C1.05566 9.95833 5.04104 14.9167 9.94324 14.9167C14.8454 14.9167 18.8308 9.95833 18.8308 9.95833C18.8308 9.95833 14.8454 5 9.94324 5ZM9.94324 13.4385C8.01604 13.4385 6.46306 11.8855 6.46306 9.95833C6.46306 8.03113 8.01604 6.47814 9.94324 6.47814C11.8704 6.47814 13.4234 8.03113 13.4234 9.95833C13.4234 11.8855 11.8704 13.4385 9.94324 13.4385Z" fill="#EFF0F1"/>
<path fill-rule="evenodd" clip-rule="evenodd" d="M12.0388 9.95836C12.0388 11.1158 11.1006 12.0539 9.94322 12.0539C8.7858 12.0539 7.84766 11.1158 7.84766 9.95836C7.84766 8.80093 8.7858 7.86279 9.94322 7.86279C11.1006 7.86279 12.0388 8.80093 12.0388 9.95836Z" fill="#EFF0F1"/>
</svg>
