<svg width="48" height="48" viewBox="0 0 48 48" fill="none" xmlns="http://www.w3.org/2000/svg">
<path d="M34.3832 11.8102C31.8079 12.6775 30.5678 14.2331 29.723 16.6558C29.505 17.3028 28.96 18.0187 28.3468 18.5005L30.4589 20.7857L23.7546 16.0502L5.25 3C5.25 3 6.58539 11.7552 7.04869 14.9764C7.37572 17.2478 7.93441 18.2664 9.70583 19.2989L10.4144 19.6844L13.4667 21.3088L11.6544 20.3589L20.021 24.9705L19.9666 25.0944L10.9595 20.8821C11.4364 22.534 12.363 25.7138 12.7582 27.1181C13.1806 28.6323 13.6575 29.1829 15.1155 29.72L17.8 30.711L19.4624 30.0502L17.3503 31.4681L6.78978 45C13.8074 38.4199 19.7485 36.0797 24.0953 34.1662C29.6413 31.7434 32.9798 30.1879 35.1599 24.5988C36.7134 20.6756 37.926 15.651 39.4661 13.7099L42.75 9.47002C42.75 9.47002 35.9502 11.2871 34.3832 11.8102Z" fill="#775CF4"/>
</svg>
