<svg width="64" height="64" viewBox="0 0 64 64" fill="none" xmlns="http://www.w3.org/2000/svg">
<path d="M45.8443 15.747C42.4105 16.9033 40.7571 18.9774 39.6307 22.2078C39.34 23.0704 38.6133 24.0249 37.7958 24.6674L40.6119 27.7142L31.6728 21.4002L7 4C7 4 8.78052 15.6736 9.39825 19.9686C9.83429 22.997 10.5792 24.3552 12.9411 25.7319L13.8859 26.2458L17.9557 28.4117L15.5392 27.1452L26.6947 33.294L26.6221 33.4593L14.6126 27.8428C15.2485 30.0453 16.484 34.2851 17.0109 36.1574C17.5741 38.1763 18.21 38.9105 20.154 39.6266L23.7333 40.9481L25.9498 40.0669L23.1337 41.9575L9.05304 60C18.4099 51.2266 26.3313 48.1063 32.1271 45.5549C39.5217 42.3246 43.973 40.2506 46.8799 32.7984C48.9512 27.5674 50.568 20.868 52.6214 18.2799L57 12.6267C57 12.6267 47.9336 15.0495 45.8443 15.747Z" fill="white"/>
</svg>
