<svg width="64" height="64" viewBox="0 0 64 64" fill="none" xmlns="http://www.w3.org/2000/svg">
<path d="M32 31.5C32 29.2457 32.8955 27.0837 34.4896 25.4896C36.0837 23.8955 38.2457 23 40.5 23C42.7543 23 44.9163 23.8955 46.5104 25.4896C48.1045 27.0837 49 29.2457 49 31.5C49 33.7543 48.1045 35.9163 46.5104 37.5104C44.9163 39.1045 42.7543 40 40.5 40C38.2457 40 36.0837 39.1045 34.4896 37.5104C32.8955 35.9163 32 33.7543 32 31.5V31.5Z" stroke="white" stroke-width="3.5"/>
<path d="M15 48.5C15 46.2457 15.8955 44.0837 17.4896 42.4896C19.0837 40.8955 21.2457 40 23.5 40H32V48.5C32 50.7543 31.1045 52.9163 29.5104 54.5104C27.9163 56.1045 25.7543 57 23.5 57C21.2457 57 19.0837 56.1045 17.4896 54.5104C15.8955 52.9163 15 50.7543 15 48.5Z" stroke="white" stroke-width="3.5"/>
<path d="M32 6V23H40.5C42.7543 23 44.9163 22.1045 46.5104 20.5104C48.1045 18.9163 49 16.7543 49 14.5C49 12.2457 48.1045 10.0837 46.5104 8.48959C44.9163 6.89553 42.7543 6 40.5 6L32 6Z" stroke="white" stroke-width="3.5"/>
<path d="M15 14.5C15 16.7543 15.8955 18.9163 17.4896 20.5104C19.0837 22.1045 21.2457 23 23.5 23H32V6H23.5C21.2457 6 19.0837 6.89553 17.4896 8.48959C15.8955 10.0837 15 12.2457 15 14.5Z" stroke="white" stroke-width="3.5"/>
<path d="M15 31.5C15 33.7543 15.8955 35.9163 17.4896 37.5104C19.0837 39.1045 21.2457 40 23.5 40H32V23H23.5C21.2457 23 19.0837 23.8955 17.4896 25.4896C15.8955 27.0837 15 29.2457 15 31.5Z" stroke="white" stroke-width="3.5"/>
</svg>
