<svg width="22" height="20" viewBox="0 0 22 20" fill="none" xmlns="http://www.w3.org/2000/svg">
<path fill-rule="evenodd" clip-rule="evenodd" d="M2.9531 4.47835C2.39094 4.62293 1.98146 4.93829 1.73644 5.41538C1.51451 5.84746 1.49635 5.98398 1.46478 7.46165C1.43485 8.86034 1.43181 8.89312 1.3085 9.13255C1.20789 9.32795 1.13087 9.40275 0.923212 9.50693C0.7804 9.57854 0.528346 9.65255 0.363038 9.67147L0.0625 9.70582V10.1611V10.6165L0.376507 10.6413C0.909046 10.6834 1.26181 10.9267 1.38557 11.3372C1.44163 11.5233 1.45939 11.8693 1.46004 12.7889C1.46099 14.1018 1.50683 14.4647 1.72536 14.8896C2.05234 15.5253 2.8053 15.9375 3.63953 15.9375H3.95328V15.5306V15.1238L3.60276 15.0694C3.20176 15.0072 2.92178 14.8501 2.76415 14.5988C2.5528 14.2619 2.50676 13.927 2.50596 12.7205C2.50516 11.4865 2.45503 11.1249 2.23755 10.7855C2.08381 10.5455 1.84393 10.346 1.55946 10.2215L1.33548 10.1234L1.52419 10.0591C1.78517 9.97007 1.99088 9.81679 2.16248 9.5834C2.43872 9.20764 2.47075 9.01357 2.50472 7.50927C2.53405 6.20818 2.54208 6.11913 2.65257 5.87409C2.71681 5.73158 2.83483 5.5607 2.91474 5.49446C3.08459 5.35366 3.49108 5.22406 3.76284 5.22406H3.95328V4.80634V4.38861L3.61658 4.39146C3.43142 4.39299 3.13283 4.43211 2.9531 4.47835ZM18.0467 4.79951V5.22406H18.2372C18.5089 5.22406 18.9154 5.35366 19.0853 5.49446C19.1652 5.5607 19.2829 5.73158 19.3469 5.87409C19.4569 6.11908 19.4649 6.20975 19.4946 7.53384C19.524 8.84029 19.5338 8.95406 19.6415 9.22642C19.7856 9.59077 20.1329 9.94712 20.4437 10.0495L20.6655 10.1226L20.4161 10.2313C19.9606 10.43 19.6669 10.8116 19.5494 11.3572C19.5174 11.5056 19.4929 12.0976 19.4925 12.7333C19.4916 13.9702 19.4451 14.2891 19.2184 14.6113C19.0299 14.8793 18.8001 15.0069 18.3918 15.0703L18.0467 15.1238V15.5306V15.9375H18.3436C19.4651 15.9375 20.2497 15.3412 20.469 14.3222C20.5182 14.0936 20.5393 13.6358 20.54 12.7889C20.5406 11.8693 20.5584 11.5233 20.6144 11.3372C20.7382 10.9267 21.091 10.6834 21.6235 10.6413L21.9375 10.6165V10.1627V9.70887L21.6756 9.67609C21.1115 9.60557 20.8065 9.43012 20.6595 9.09161C20.5829 8.91533 20.5654 8.67777 20.5394 7.46013C20.5116 6.15667 20.4995 6.00767 20.3972 5.71551C20.1109 4.89775 19.4713 4.45825 18.4832 4.40051L18.0467 4.375V4.79951ZM10.8005 7.12447C10.5134 7.16944 10.0575 7.36297 9.77635 7.5592C9.34502 7.86026 8.98577 8.395 8.82076 8.98148C8.72095 9.3363 8.68184 10.2902 8.74963 10.7169C8.92352 11.8113 9.57398 12.6233 10.4939 12.8943C10.6795 12.949 10.7398 13.003 10.908 13.2655C11.4336 14.0855 12.2444 14.5135 13.2676 14.5114C13.8308 14.5102 14.2123 14.4217 14.23 14.2882C14.2524 14.1191 14.0654 13.4547 13.9993 13.4688C13.9656 13.4761 13.7736 13.4957 13.5727 13.5124C13.1162 13.5504 12.5889 13.4098 12.322 13.179C12.1465 13.0271 12.0935 12.891 12.2096 12.8901C12.3717 12.8888 12.8099 12.6284 13.099 12.3616C13.6941 11.8125 13.9575 11.102 13.9596 10.0402C13.9615 9.07382 13.7154 8.36585 13.1857 7.81411C12.8915 7.5077 12.3998 7.24065 11.9578 7.14737C11.7075 7.09454 11.0719 7.08196 10.8005 7.12447ZM4.36571 10.0648V12.9397H5.01418H5.66264V11.8094V10.6791H6.66028H7.65792V10.1385V9.5979H6.66028H5.66264V8.93445V8.271H6.83486H8.00709V7.73042V7.18983H6.1864H4.36571V10.0648ZM15.1402 10.0648V12.9397H16.9359H18.7317V12.3991V11.8585H17.5595H16.3872V9.52418V7.18983H15.7637H15.1402V10.0648ZM11.7233 8.22702C11.9984 8.30118 12.3532 8.67148 12.5011 9.03878C12.603 9.29178 12.6176 9.41297 12.6193 10.0156C12.6207 10.5352 12.5999 10.7713 12.5343 10.98C12.3209 11.6592 11.8521 12.0353 11.2744 11.9908C10.7117 11.9476 10.3582 11.628 10.1434 10.9685C10.0177 10.5826 9.99259 9.7127 10.0954 9.30303C10.3119 8.43982 10.9494 8.01845 11.7233 8.22702Z" fill="#775CF4"/>
</svg>
