<svg width="64" height="64" viewBox="0 0 64 64" fill="none" xmlns="http://www.w3.org/2000/svg">
<path fill-rule="evenodd" clip-rule="evenodd" d="M32 5.33333C17.2667 5.33333 5.33334 17.5685 5.33334 32.6745C5.33334 44.773 12.9667 54.9917 23.5667 58.6144C24.9 58.8537 25.4 58.0334 25.4 57.3157C25.4 56.6664 25.3667 54.5133 25.3667 52.2234C18.6667 53.488 16.9333 50.5488 16.4 49.0108C16.1 48.2248 14.8 45.7983 13.6667 45.1489C12.7333 44.6363 11.4 43.3717 13.6333 43.3376C15.7333 43.3034 17.2333 45.3198 17.7333 46.14C20.1333 50.2754 23.9667 49.1134 25.5 48.3957C25.7333 46.6185 26.4333 45.4223 27.2 44.7388C21.2667 44.0553 15.0667 41.6971 15.0667 31.2391C15.0667 28.2657 16.1 25.805 17.8 23.8911C17.5333 23.2076 16.6 20.4051 18.0667 16.6457C18.0667 16.6457 20.3 15.928 25.4 19.4482C27.5333 18.833 29.8 18.5254 32.0667 18.5254C34.3333 18.5254 36.6 18.833 38.7333 19.4482C43.8333 15.8939 46.0667 16.6457 46.0667 16.6457C47.5333 20.4051 46.6 23.2076 46.3333 23.8911C48.0333 25.805 49.0667 28.2316 49.0667 31.2391C49.0667 41.7313 42.8333 44.0553 36.9 44.7388C37.8667 45.5932 38.7 47.2337 38.7 49.7969C38.7 53.4538 38.6667 56.393 38.6667 57.3157C38.6667 58.0334 39.1667 58.8878 40.5 58.6144C51.0333 54.9917 58.6667 44.7388 58.6667 32.6745C58.6667 17.5685 46.7333 5.33333 32 5.33333Z" fill="white"/>
</svg>
