<svg width="23" height="20" viewBox="0 0 23 20" fill="none" xmlns="http://www.w3.org/2000/svg">
<path opacity="0.190685" d="M0.0483398 13.2615V7.05185L5.35049 4.35352L10.5852 7.11375V13.2308L5.2533 15.959L0.0483398 13.2615Z" fill="#DA58B3" fill-opacity="0.8"/>
<path d="M11.3373 7.27112C12.167 7.27112 12.8727 7.56152 13.4547 8.14233C14.0481 8.72314 14.3448 9.42067 14.3448 10.2349C14.3448 10.867 14.1576 11.4393 13.7831 11.9517L14.3448 12.4984L13.6275 13.1988L13.0744 12.6521L13.0401 12.6756C12.5249 13.0244 11.9573 13.1988 11.3373 13.1988C11.2106 13.1988 11.0868 13.192 10.9659 13.1785L10.9659 12.1767C11.0856 12.1976 11.2094 12.208 11.3373 12.208C11.8846 12.208 12.3542 12.0172 12.746 11.6357C13.1378 11.2428 13.3337 10.7759 13.3337 10.2349C13.3337 9.694 13.1378 9.22992 12.746 8.84271C12.3542 8.45551 11.8846 8.26191 11.3373 8.26191C10.7899 8.26191 10.3175 8.45551 9.91993 8.84271C9.53391 9.22992 9.34089 9.694 9.34089 10.2349C9.34089 10.5748 9.41706 10.8854 9.56939 11.1667L9.56942 12.6305C9.44833 12.5402 9.33183 12.4393 9.2199 12.3276C8.63222 11.7524 8.33838 11.0549 8.33838 10.2349C8.33838 9.42067 8.63222 8.72314 9.2199 8.14233C9.79606 7.56152 10.5019 7.27112 11.3373 7.27112Z" fill="#DA58B3"/>
<path fill-rule="evenodd" clip-rule="evenodd" d="M11.3376 7.45836C10.5515 7.45836 9.8943 7.7294 9.35423 8.27382L9.35292 8.27514C8.80032 8.82128 8.52694 9.47122 8.52694 10.235C8.52694 11.0048 8.80054 11.6543 9.35226 12.1942L9.35358 12.1955C9.36283 12.2047 9.37211 12.2139 9.38142 12.223L9.3814 11.2128C9.22846 10.9139 9.15291 10.5869 9.15291 10.235C9.15291 9.64426 9.36584 9.13294 9.7865 8.71099L9.78845 8.70904C10.2205 8.2882 10.74 8.07477 11.3376 8.07477C11.9352 8.07477 12.4523 8.28831 12.879 8.71001C13.3057 9.13175 13.5222 9.64336 13.5222 10.235C13.5222 10.8266 13.3058 11.3405 12.88 11.7676L12.878 11.7695C12.4511 12.1852 11.9343 12.3952 11.3376 12.3952C11.2758 12.3952 11.2148 12.393 11.1545 12.3885L11.1544 13.0065C11.2146 13.0099 11.2757 13.0116 11.3376 13.0116C11.9194 13.0116 12.4499 12.8488 12.934 12.5213C12.9341 12.5212 12.9343 12.5211 12.9345 12.521L13.0965 12.4098L13.6286 12.9357L14.0762 12.4987L13.5355 11.9725L13.631 11.8418C13.9822 11.3612 14.1568 10.8274 14.1568 10.235C14.1568 9.47182 13.881 8.82206 13.3229 8.27578L13.3216 8.27449C12.7752 7.72919 12.1175 7.45836 11.3376 7.45836ZM9.08679 8.01028C9.69893 7.39352 10.4531 7.08398 11.3376 7.08398C12.2166 7.08398 12.9703 7.39374 13.5877 8.00962C14.216 8.62483 14.5334 9.36993 14.5334 10.235C14.5334 10.8523 14.3646 11.4182 14.0284 11.9283L14.6141 12.4982L13.627 13.462L13.051 12.8927C12.53 13.2211 11.9575 13.386 11.3376 13.386C11.2041 13.386 11.0733 13.3789 10.9451 13.3645L10.7779 13.3458L10.7779 11.954L10.9986 11.9924C11.1071 12.0113 11.22 12.0208 11.3376 12.0208C11.8351 12.0208 12.2571 11.8497 12.6136 11.503C12.9706 11.1445 13.1457 10.7249 13.1457 10.235C13.1457 9.74474 12.9704 9.3282 12.6135 8.97552C12.2567 8.62282 11.8347 8.44915 11.3376 8.44915C10.8409 8.44915 10.4158 8.62259 10.053 8.97552C9.70223 9.32777 9.52945 9.74429 9.52945 10.235C9.52945 10.5459 9.59883 10.8257 9.73546 11.0781L9.75795 11.1196L9.75799 13.0047L9.4568 12.7803C9.32837 12.6846 9.20527 12.5779 9.08746 12.4604C8.46425 11.8502 8.15039 11.1048 8.15039 10.235C8.15039 9.37054 8.46447 8.62563 9.08679 8.01028Z" fill="#DA58B3"/>
<path d="M5.50037 13.1988C5.75964 13.1988 6.01027 13.1675 6.25226 13.1048C6.49425 13.0422 6.72183 12.9525 6.93501 12.8358C7.14819 12.719 7.34552 12.5781 7.52701 12.413C7.7085 12.2478 7.86838 12.0656 8.00666 11.8663V9.74809H5.50037V10.7303H7.00415V11.5418C6.81401 11.7524 6.59075 11.9162 6.33436 12.0329C6.07797 12.1496 5.79997 12.208 5.50037 12.208C4.95302 12.208 4.48057 12.0172 4.08302 11.6357C3.69699 11.2428 3.50398 10.7759 3.50398 10.2349C3.50398 9.694 3.69699 9.22992 4.08302 8.84271C4.48057 8.45551 4.95302 8.26191 5.50037 8.26191C6.05348 8.26191 6.52305 8.45551 6.90908 8.84271L7.6264 8.14233C7.34984 7.86901 7.03007 7.65548 6.66709 7.50173C6.30411 7.34799 5.91521 7.27112 5.50037 7.27112C4.6707 7.27112 3.96491 7.56152 3.38299 8.14233C2.79531 8.72314 2.50146 9.42067 2.50146 10.2349C2.50146 11.0549 2.79531 11.7524 3.38299 12.3276C3.96491 12.9084 4.6707 13.1988 5.50037 13.1988Z" fill="#DA58B3"/>
<path fill-rule="evenodd" clip-rule="evenodd" d="M3.24973 8.00995C3.86716 7.39385 4.62095 7.08398 5.50017 7.08398C5.93904 7.08398 6.35318 7.16545 6.74068 7.32958C7.12538 7.49252 7.46522 7.71935 7.75893 8.00963L7.89407 8.14319L6.90709 9.10687L6.77516 8.97454C6.42483 8.62314 6.00355 8.44914 5.50017 8.44914C5.00345 8.44914 4.57836 8.62259 4.21556 8.97552C3.86483 9.32777 3.69205 9.74429 3.69205 10.235C3.69205 10.7253 3.86461 11.1449 4.21556 11.503C4.57795 11.8499 5.00302 12.0208 5.50017 12.0208C5.77444 12.0208 6.0255 11.9676 6.25577 11.8627C6.4672 11.7665 6.65355 11.6353 6.81567 11.4682V10.9176H5.3119V9.56096H8.19473V11.9247L8.16144 11.9727C8.01502 12.1837 7.84576 12.3766 7.65391 12.5511C7.46153 12.7262 7.25204 12.8758 7.02563 12.9998C6.79839 13.1242 6.55619 13.2196 6.29949 13.286C6.04145 13.3528 5.77485 13.386 5.50017 13.386C4.62111 13.386 3.86743 13.0762 3.25006 12.4604C2.62685 11.8502 2.31299 11.1048 2.31299 10.235C2.31299 9.37038 2.62718 8.62537 3.24973 8.00995ZM5.50017 7.45836C4.72021 7.45836 4.06252 7.72918 3.51617 8.27448L3.51552 8.27514C2.96292 8.82127 2.68954 9.47122 2.68954 10.235C2.68954 11.0048 2.96314 11.6543 3.51486 12.1942L3.51618 12.1955C4.06252 12.7408 4.72021 13.0116 5.50017 13.0116C5.74403 13.0116 5.97869 12.9822 6.20462 12.9237C6.4319 12.8649 6.64486 12.7809 6.84398 12.6719C7.04393 12.5624 7.22911 12.4301 7.3997 12.2749C7.55643 12.1323 7.69586 11.9764 7.81819 11.8071V9.93533H5.68844V10.5432H7.19222V11.6135L7.14408 11.6668C6.93687 11.8964 6.69265 12.0756 6.41255 12.2031C6.13004 12.3317 5.8251 12.3952 5.50017 12.3952C4.90352 12.3952 4.38434 12.1853 3.95206 11.7704L3.95007 11.7685L3.94814 11.7666C3.52834 11.3393 3.3155 10.8257 3.3155 10.235C3.3155 9.64426 3.52843 9.13294 3.9491 8.71099L3.95105 8.70904C4.38313 8.2882 4.90264 8.07477 5.50017 8.07477C6.03921 8.07477 6.5103 8.24524 6.90547 8.58373L7.35385 8.14594C7.1281 7.95052 6.87475 7.79329 6.5931 7.67399C6.25464 7.53064 5.89097 7.45836 5.50017 7.45836Z" fill="#DA58B3"/>
<path d="M16.6236 13.1989C16.8907 13.1989 17.1398 13.1322 17.371 12.9988L17.2731 12.1429C17.0969 12.1798 16.9858 12.1983 16.9398 12.1983C16.7876 12.1983 16.6718 12.1522 16.5925 12.0599C16.5131 11.9677 16.4941 11.808 16.5356 11.5809L16.8412 9.90764H17.4874L17.6631 8.94539H17.0169L17.2509 7.66382L16.017 7.79155L15.8063 8.94539H15.1601L14.9844 9.90764H15.6306L15.2939 11.7512C15.2162 12.177 15.2963 12.5247 15.5342 12.7944C15.7722 13.064 16.1353 13.1989 16.6236 13.1989ZM19.2501 14.9871C19.7712 14.9644 20.255 14.7529 20.7014 14.3527C21.1479 13.9525 21.4256 13.4543 21.5344 12.8582L22.2497 8.94114H21.0435L20.535 11.7257C20.292 12.0181 20.0426 12.1728 19.7868 12.1898C19.4982 12.1813 19.2964 12.099 19.1813 11.9428C19.0662 11.7867 19.0346 11.5667 19.0864 11.2829L19.5141 8.94114H18.3078L17.8257 11.5809C17.748 12.0067 17.8229 12.3828 18.0505 12.7092C18.2781 13.0357 18.6647 13.1989 19.2104 13.1989C19.6097 13.1989 19.9851 13.0697 20.3367 12.8114L20.297 13.0286C20.2348 13.3692 20.1058 13.6317 19.9098 13.8162C19.7138 14.0007 19.4292 14.093 19.0558 14.093C18.7537 14.0646 18.4536 13.9227 18.1556 13.6672L17.4789 14.3059C17.8842 14.76 18.3869 14.9956 18.9869 15.0127L19.2501 14.9871Z" fill="#DA58B3"/>
</svg>
