<svg width="20" height="20" viewBox="0 0 20 20" fill="none" xmlns="http://www.w3.org/2000/svg">
<path d="M18.4375 4.78742C18.4375 5.06374 18.3285 5.32879 18.1343 5.5242C17.9403 5.7196 17.6771 5.82948 17.4027 5.82948H10.1592C9.78955 5.82948 9.44789 5.63081 9.26311 5.30844C9.07821 4.98598 9.07821 4.58887 9.26311 4.26637C9.44789 3.944 9.78955 3.74534 10.1592 3.74534H17.4027C17.6771 3.74534 17.9403 3.85521 18.1343 4.05062C18.3285 4.24602 18.4375 4.5111 18.4375 4.78742ZM3.4779 6.56578C3.67195 6.76094 3.93493 6.87057 4.20921 6.87057C4.48337 6.87057 4.74634 6.76093 4.94039 6.56578L7.52733 3.96075C7.78537 3.69703 7.88497 3.3152 7.7891 2.9577C7.69323 2.60019 7.41618 2.32086 7.06128 2.22395C6.70641 2.12691 6.32708 2.22673 6.06485 2.48634L4.20921 4.35495L3.64692 3.78873V3.78885C3.38466 3.52924 3.00536 3.42942 2.65058 3.52646C2.2957 3.62337 2.01862 3.90273 1.92263 4.26021C1.82675 4.61768 1.92636 4.99954 2.1844 5.26326L3.4779 6.56578ZM17.4024 9.21599H10.159C9.7893 9.21599 9.44764 9.41453 9.26286 9.73702C9.07796 10.0594 9.07796 10.4566 9.26286 10.779C9.44764 11.1014 9.7893 11.3 10.159 11.3H17.4024C17.7721 11.3 18.1138 11.1015 18.2985 10.779C18.4834 10.4566 18.4834 10.0594 18.2985 9.73702C18.1138 9.41456 17.7721 9.21599 17.4024 9.21599ZM3.4779 12.0363C3.67195 12.2314 3.93493 12.3411 4.20921 12.3411C4.48337 12.3411 4.74634 12.2314 4.94039 12.0363L7.52733 9.43124C7.72414 9.23657 7.83554 8.97077 7.83687 8.69287C7.83807 8.4151 7.7292 8.14824 7.53419 7.95174C7.33919 7.75513 7.0744 7.64513 6.79842 7.6461C6.52258 7.64707 6.25852 7.75888 6.06484 7.95684L4.2092 9.82375L3.64692 9.25753V9.25765C3.45335 9.0597 3.1893 8.94789 2.91333 8.94691C2.63748 8.94594 2.37257 9.05593 2.17769 9.25243C1.98268 9.44904 1.87369 9.7159 1.87501 9.99368C1.87634 10.2715 1.98773 10.5374 2.18443 10.732L3.4779 12.0363ZM17.4024 14.6865H10.159C9.7893 14.6865 9.44764 14.8851 9.26286 15.2075C9.07796 15.5299 9.07796 15.9271 9.26286 16.2496C9.44764 16.5719 9.7893 16.7705 10.159 16.7705H17.4024C17.7721 16.7705 18.1138 16.5719 18.2985 16.2496C18.4834 15.9271 18.4834 15.5299 18.2985 15.2075C18.1138 14.8851 17.7721 14.6865 17.4024 14.6865ZM4.20902 17.8125C4.48331 17.8123 4.7464 17.7023 4.9402 17.5069L7.52714 14.9018C7.78519 14.638 7.88479 14.2562 7.78892 13.8988C7.69304 13.5413 7.416 13.2619 7.06109 13.1649C6.70622 13.068 6.3269 13.1678 6.06466 13.4274L4.20902 15.296L3.64673 14.7298V14.7299C3.38448 14.4703 3.00517 14.3705 2.65039 14.4674C2.29552 14.5644 2.01844 14.8438 1.92245 15.2013C1.82657 15.5586 1.92617 15.9405 2.18422 16.2043L3.47769 17.5069C3.67161 17.7023 3.93462 17.8123 4.20902 17.8125Z" fill="#EFF0F1"/>
</svg>
