<svg width="64" height="64" viewBox="0 0 64 64" fill="none" xmlns="http://www.w3.org/2000/svg">
<path d="M2 49.9968L13.0875 21.6287C14.65 17.6311 18.5033 15 22.7954 15H29.4799L18.3924 43.368C16.8299 47.3657 12.9766 49.9968 8.68451 49.9968H2Z" fill="url(#paint0_linear_25_506)"/>
<path d="M18.2659 49.9969L29.3534 21.6288C30.9158 17.6312 34.7691 15.0001 39.0612 15.0001H45.7458L34.6582 43.3681C33.0958 47.3658 29.2425 49.9969 24.9504 49.9969H18.2659Z" fill="url(#paint1_linear_25_506)"/>
<path d="M34.5327 49.9969L45.6202 21.6288C47.1826 17.6312 51.0359 15.0001 55.328 15.0001H62.0125L50.925 43.3681C49.3626 47.3658 45.5093 49.9969 41.2172 49.9969H34.5327Z" fill="url(#paint2_linear_25_506)"/>
<defs>
<linearGradient id="paint0_linear_25_506" x1="62.0127" y1="12.3269" x2="2" y2="46.2307" gradientUnits="userSpaceOnUse">
<stop stop-color="#FF5CAA"/>
<stop offset="1" stop-color="#FF4E62"/>
</linearGradient>
<linearGradient id="paint1_linear_25_506" x1="62.0127" y1="12.3268" x2="1.99997" y2="46.2307" gradientUnits="userSpaceOnUse">
<stop stop-color="#FF5CAA"/>
<stop offset="1" stop-color="#FF4E62"/>
</linearGradient>
<linearGradient id="paint2_linear_25_506" x1="62.0127" y1="12.3268" x2="2.00001" y2="46.2307" gradientUnits="userSpaceOnUse">
<stop stop-color="#FF5CAA"/>
<stop offset="1" stop-color="#FF4E62"/>
</linearGradient>
</defs>
</svg>
