<svg width="20" height="20" viewBox="0 0 20 20" fill="none" xmlns="http://www.w3.org/2000/svg">
<path d="M13.4744 1.5625H17.9412C18.2153 1.5625 18.4375 1.78474 18.4375 2.05878V6.52584C18.4375 6.79987 18.2153 7.02211 17.9412 7.02211H13.4744C13.2004 7.02211 12.9782 6.79988 12.9782 6.52584V2.05878C12.9782 1.78474 13.2004 1.5625 13.4744 1.5625ZM5.2127 13.2156L7.94228 17.6824C8.14437 18.0132 7.90637 18.4375 7.51888 18.4375H2.05948C1.67201 18.4375 1.434 18.0132 1.63609 17.6824L4.36567 13.2156C4.55918 12.8988 5.01919 12.8988 5.21267 13.2156H5.2127ZM5.28556 11.489C5.28556 11.7632 5.06333 11.9854 4.78918 11.9854C4.51504 11.9854 4.29293 11.7632 4.29293 11.489V7.27027C4.29293 5.4886 5.73718 4.04412 7.51891 4.04412C9.3005 4.04412 10.7449 5.48857 10.7449 7.27027V12.7299C10.7449 13.9634 11.7448 14.9634 12.9782 14.9634C14.2117 14.9634 15.2115 13.9634 15.2115 12.7299V8.51119C15.2115 8.23704 15.4338 8.01479 15.7078 8.01479C15.9819 8.01479 16.2042 8.23703 16.2042 8.51119V12.7299C16.2042 14.5116 14.7598 15.9561 12.9782 15.9561C11.1965 15.9561 9.75221 14.5116 9.75221 12.7299V7.27027C9.75221 6.03676 8.7523 5.03683 7.51888 5.03683C6.28544 5.03683 5.28556 6.03679 5.28556 7.27027V11.489Z" fill="#EFF0F1"/>
</svg>
