<svg width="64" height="64" viewBox="0 0 64 64" fill="none" xmlns="http://www.w3.org/2000/svg">
<path d="M46 4H18C10.268 4 4 10.268 4 18V46C4 53.732 10.268 60 18 60H46C53.732 60 60 53.732 60 46V18C60 10.268 53.732 4 46 4Z" fill="url(#paint0_linear_25_637)"/>
<path fill-rule="evenodd" clip-rule="evenodd" d="M52.9634 37.7442C52.3138 26.7304 43.1774 18 31.9998 18C20.8236 18 11.6858 26.7304 11.0362 37.7442C11.074 38.2188 11.151 38.5688 11.305 38.8712C11.5735 39.398 12.0018 39.8264 12.5286 40.0948C13.0914 40.3818 13.8166 40.3986 15.1998 40.4V39C15.1998 29.7222 22.722 22.2 31.9998 22.2C41.2776 22.2 48.7998 29.7222 48.7998 39V40.4C50.183 40.4 50.9082 40.3818 51.471 40.0948C51.9979 39.8264 52.4262 39.398 52.6946 38.8712C52.8486 38.5688 52.9256 38.2188 52.9634 37.7442Z" fill="url(#paint1_linear_25_637)"/>
<path fill-rule="evenodd" clip-rule="evenodd" d="M32 27.8C29.0296 27.8 26.1808 28.98 24.0804 31.0804C21.98 33.1808 20.8 36.0296 20.8 39V40.4H16.6V39C16.6 30.495 23.495 23.6 32 23.6C40.505 23.6 47.4 30.495 47.4 39V40.4H43.2V39C43.2 36.0296 42.02 33.1808 39.9196 31.0804C37.8192 28.98 34.9704 27.8 32 27.8Z" fill="url(#paint2_linear_25_637)"/>
<path fill-rule="evenodd" clip-rule="evenodd" d="M41.8 40.4V39C41.8 37.7131 41.5465 36.4387 41.054 35.2497C40.5615 34.0607 39.8397 32.9804 38.9297 32.0704C38.0196 31.1604 36.9393 30.4385 35.7503 29.946C34.5613 29.4535 33.287 29.2 32 29.2C30.7131 29.2 29.4387 29.4535 28.2497 29.946C27.0607 30.4385 25.9804 31.1604 25.0704 32.0704C24.1604 32.9804 23.4385 34.0607 22.946 35.2497C22.4535 36.4387 22.2 37.7131 22.2 39V40.4H25C25.3713 40.4 25.7274 40.2525 25.99 39.99C26.2525 39.7274 26.4 39.3713 26.4 39C26.4 37.5148 26.99 36.0904 28.0402 35.0402C29.0904 33.99 30.5148 33.4 32 33.4C33.4852 33.4 34.9096 33.99 35.9598 35.0402C37.01 36.0904 37.6 37.5148 37.6 39C37.6 39.3713 37.7475 39.7274 38.0101 39.99C38.2726 40.2525 38.6287 40.4 39 40.4H41.8Z" fill="url(#paint3_linear_25_637)"/>
<defs>
<linearGradient id="paint0_linear_25_637" x1="32" y1="4" x2="32" y2="60" gradientUnits="userSpaceOnUse">
<stop stop-color="#F3F3F2"/>
<stop offset="0.99" stop-color="#EEEEEC"/>
</linearGradient>
<linearGradient id="paint1_linear_25_637" x1="31.9998" y1="18" x2="31.9998" y2="40.4" gradientUnits="userSpaceOnUse">
<stop stop-color="#0091FF"/>
<stop offset="1" stop-color="#3E63DD"/>
</linearGradient>
<linearGradient id="paint2_linear_25_637" x1="32" y1="23.6" x2="32" y2="40.4" gradientUnits="userSpaceOnUse">
<stop stop-color="#46A758"/>
<stop offset="1" stop-color="#30A46C"/>
</linearGradient>
<linearGradient id="paint3_linear_25_637" x1="32" y1="29.2" x2="32" y2="40.4" gradientUnits="userSpaceOnUse">
<stop stop-color="#F76808"/>
<stop offset="1" stop-color="#E54D2E"/>
</linearGradient>
</defs>
</svg>
