<svg width="20" height="20" viewBox="0 0 20 20" fill="none" xmlns="http://www.w3.org/2000/svg">
<path fill-rule="evenodd" clip-rule="evenodd" d="M10 18.75C14.8325 18.75 18.75 14.8325 18.75 10C18.75 5.16751 14.8325 1.25 10 1.25C5.16751 1.25 1.25 5.16751 1.25 10C1.25 14.8325 5.16751 18.75 10 18.75ZM15.9939 6.52459C15.1063 5.00158 13.6406 3.81492 11.8034 3.32264C9.9662 2.83036 8.10351 3.12517 6.57337 4.00037C5.02694 4.88489 3.82017 6.36223 3.32265 8.21901C2.33284 11.913 4.52502 15.71 8.21902 16.6998C9.18984 16.9599 9.48611 16.4591 9.93991 15.692C10.3085 15.0689 10.7811 14.2701 11.8034 13.5607C12.8877 12.8084 13.9304 12.8113 14.7817 12.8138C15.7213 12.8164 16.4278 12.8184 16.6998 11.8034C17.1973 9.94662 16.8909 8.06383 15.9939 6.52459Z" fill="#9D9CF7"/>
</svg>
