<svg width="20" height="20" viewBox="0 0 20 20" fill="none" xmlns="http://www.w3.org/2000/svg">
<path d="M1.89271 18.1075C2.10378 18.3186 2.38999 18.4375 2.68858 18.4375C2.98715 18.4375 3.27354 18.3186 3.48446 18.1075L6.81424 14.7805C8.81573 16.2416 11.4209 16.5896 13.7355 15.7051C16.0503 14.8205 17.7595 12.8237 18.2764 10.4004C18.7935 7.97692 18.048 5.45656 16.2958 3.70416C14.5436 1.95176 12.0233 1.20656 9.5996 1.72361C7.17632 2.24052 5.17951 3.94973 4.29494 6.26454C3.41043 8.57914 3.7584 11.1843 5.21948 13.1858L1.89246 16.5155C1.68138 16.7264 1.5625 17.0128 1.5625 17.3114C1.5625 17.61 1.68138 17.8962 1.89246 18.1073L1.89271 18.1075ZM11.1255 3.81263C12.4681 3.81263 13.7557 4.34601 14.705 5.29526C15.6542 6.2445 16.1876 7.53217 16.1876 8.87474C16.1876 10.2171 15.6542 11.5048 14.705 12.454C13.7557 13.4035 12.4681 13.9366 11.1255 13.9366C9.78315 13.9366 8.49548 13.4035 7.54624 12.454C6.59679 11.5048 6.06362 10.2171 6.06362 8.87474C6.06362 7.53217 6.59679 6.2445 7.54624 5.29526C8.49548 4.34601 9.78315 3.81263 11.1255 3.81263Z" fill="#EFF0F1"/>
</svg>
