<svg width="64" height="64" viewBox="0 0 64 64" fill="none" xmlns="http://www.w3.org/2000/svg">
<path d="M55.3736 30.1171C53.3971 27.7178 50.7647 25.943 47.7852 25.0227C47.7852 24.957 47.7852 24.8912 47.7852 24.8419C47.7852 16.0993 40.7085 9.01643 31.955 9C23.1992 9 16.1067 16.0664 16.0887 24.8091V24.8255C16.0887 24.8912 16.0887 24.9734 16.0887 25.0392C7.74537 27.6685 3.10492 36.559 5.73729 44.8909C8.37191 53.2228 17.2742 57.857 25.6175 55.2276C28.02 54.4717 30.1926 53.157 31.9866 51.3987C38.1911 57.5611 48.2135 57.5282 54.3864 51.3329C60.1447 45.581 60.5572 36.3949 55.3736 30.1171ZM43.1133 51.9902C36.5616 51.9738 31.2631 46.6821 31.2631 40.158C31.2631 39.0569 30.3751 38.1695 29.2708 38.1695C28.1687 38.1695 27.2808 39.0569 27.2808 40.158C27.2808 43.0011 28.038 45.8112 29.5029 48.2597C25.0248 53.0255 17.5221 53.2557 12.7487 48.7693C7.97525 44.2992 7.74537 36.8056 12.2393 32.0398C15.4982 28.5888 20.4993 27.4056 24.9594 29.0325L25.009 29.0489C25.453 29.1968 26.1111 29.5091 26.3094 29.6734C27.1478 30.3964 28.3986 30.2978 29.1243 29.4598C29.8478 28.6217 29.7486 27.3727 28.9102 26.6496C28.038 25.9101 26.6542 25.4007 26.3252 25.2857C24.5808 24.6447 22.7214 24.3161 20.8621 24.3161C20.5984 24.3161 20.3528 24.3161 20.1049 24.3325C20.3843 17.8084 25.915 12.7469 32.4644 13.0262C38.998 13.3056 44.0666 18.8273 43.7871 25.3678C43.6226 29.0161 41.7948 32.3686 38.8334 34.4884C37.9274 35.1294 37.7313 36.3783 38.3737 37.2657C39.0137 38.1695 40.2645 38.3668 41.1548 37.7259C44.1162 35.6058 46.273 32.5328 47.2421 29.0325C53.3813 31.3004 56.5252 38.1037 54.2692 44.2334C52.5249 48.9006 48.0827 51.9902 43.1133 51.9902Z" fill="#F3702A"/>
</svg>
