<svg width="64" height="64" viewBox="0 0 64 64" fill="none" xmlns="http://www.w3.org/2000/svg">
<path fill-rule="evenodd" clip-rule="evenodd" d="M33.1812 8.78698L39.743 23.3423L55.8538 25C56.3576 25.0444 56.7847 25.3837 56.9357 25.8597C57.0132 26.091 57.0208 26.3393 56.9577 26.5749C56.8946 26.8119 56.762 27.0247 56.5764 27.187L44.5325 37.8598L47.9088 53.4792C47.9617 53.7154 47.9423 53.9616 47.8533 54.1872H47.8565C47.7675 54.4156 47.6132 54.6139 47.4121 54.7578C47.2117 54.9006 46.9746 54.9844 46.7277 54.9986C46.4809 55.0096 46.2361 54.95 46.0232 54.8267L31.9993 46.8361L17.9773 54.8267C17.764 54.9503 17.5189 55.01 17.2721 54.9986C17.0255 54.9841 16.7884 54.9002 16.5887 54.7578C16.3876 54.6139 16.233 54.4156 16.144 54.1872C16.0554 53.9616 16.0359 53.7154 16.0885 53.4792L19.4665 37.8598L7.42354 27.1861C7.23794 27.0237 7.10531 26.8106 7.0426 26.5736C6.97917 26.3384 6.98674 26.0898 7.06422 25.8585C7.14135 25.6276 7.28263 25.4226 7.4722 25.267C7.50031 25.251 7.52698 25.2329 7.5522 25.2122C7.72844 25.0925 7.93314 25.0193 8.1465 24.9994L24.2573 23.3417L30.8367 8.74641C31.0407 8.29273 31.4969 8 32.0007 8C32.5046 8 32.9608 8.29274 33.1648 8.74641C33.1688 8.76027 33.1753 8.77519 33.1803 8.78762L33.1812 8.78698Z" fill="white"/>
</svg>