<svg width="181" height="194" viewBox="0 0 181 194" fill="none" xmlns="http://www.w3.org/2000/svg">
<g filter="url(#filter0_d_471_11641)">
<path d="M90.4695 54.0013C89.7151 54.0073 88.9928 54.3072 88.4588 54.8371L78.8537 64.3926C78.1241 65.1185 77.8393 66.1756 78.1067 67.1668C78.3733 68.1579 79.1512 68.9318 80.1474 69.197C81.1437 69.4629 82.2063 69.1797 82.9353 68.4538L87.6179 63.7953V70.2454C87.6179 77.2181 81.9986 83.1017 75.5519 89.2063C72.3285 92.2591 68.9812 95.3152 66.3367 98.7024C63.6922 102.089 61.6842 105.945 61.6842 110.378V119.396C57.271 120.658 54 124.713 54 129.489C54 135.26 58.7643 140 64.5659 140C70.3667 140 75.1312 135.26 75.1312 129.489C75.1312 124.713 71.8603 120.658 67.4476 119.396V110.378C67.4476 107.672 68.6811 105.067 70.8994 102.226C73.1172 99.3852 76.2534 96.4443 79.5136 93.3568C86.0341 87.1819 93.3813 80.1407 93.3813 70.2444V63.7943L98.0639 68.4528C98.7929 69.1786 99.8555 69.4619 100.852 69.196C101.848 68.9307 102.626 68.1568 102.893 67.1658C103.16 66.1746 102.875 65.1175 102.146 64.3916L92.5404 54.8361C91.9917 54.2915 91.2447 53.9902 90.4695 54.0002V54.0013ZM116.434 67.3786C110.633 67.3786 105.869 72.119 105.869 77.89C105.869 83.6611 110.633 88.4015 116.434 88.4015C122.236 88.4015 127 83.6611 127 77.89C127 72.119 122.236 67.3786 116.434 67.3786ZM57.5138 68.3045C56.7775 68.3758 56.0968 68.7264 55.6131 69.283C55.1293 69.8395 54.8787 70.56 54.9142 71.2952C54.9498 72.0298 55.268 72.7236 55.8027 73.2316L60.4853 77.8901L55.8027 82.5486C55.0737 83.2738 54.789 84.3315 55.0556 85.3221C55.3229 86.3132 56.1008 87.0871 57.097 87.3529C58.0927 87.6182 59.156 87.3349 59.8849 86.6097L64.5676 81.9513L69.2502 86.6097C69.9792 87.3349 71.0417 87.6182 72.0381 87.3529C73.0344 87.087 73.8123 86.3131 74.0788 85.3221C74.3461 84.3316 74.0614 83.2738 73.3317 82.5486L68.6498 77.8901L73.3317 73.2316C73.8939 72.6917 74.2115 71.9472 74.2115 71.17C74.2115 70.3928 73.8939 69.6483 73.3324 69.1084C72.7703 68.5678 72.0119 68.2779 71.2306 68.3046C70.4822 68.3266 69.772 68.6372 69.2501 69.1704L64.5674 73.8289L59.8848 69.1704C59.3408 68.6152 58.5937 68.3026 57.8139 68.3046C57.7141 68.2992 57.6137 68.2991 57.5138 68.3045ZM116.434 73.1123C119.121 73.1123 121.237 75.2172 121.237 77.89C121.237 80.5628 119.121 82.6678 116.434 82.6678C113.747 82.6678 111.632 80.5628 111.632 77.89C111.632 75.2172 113.747 73.1123 116.434 73.1123ZM90.5004 93.1788C84.6996 93.1788 79.9345 97.9185 79.9345 103.69C79.9345 109.461 84.6994 114.201 90.5004 114.201C96.3013 114.201 101.066 109.461 101.066 103.69C101.066 97.9187 96.3013 93.1788 90.5004 93.1788ZM90.5004 98.9118C93.1871 98.9118 95.3029 101.017 95.3029 103.69C95.3029 106.362 93.1871 108.467 90.5004 108.467C87.8137 108.467 85.6978 106.362 85.6978 103.69C85.6978 101.017 87.8137 98.9118 90.5004 98.9118ZM109.379 119.905C108.643 119.976 107.963 120.326 107.479 120.883C106.995 121.439 106.745 122.16 106.781 122.895C106.815 123.63 107.134 124.323 107.669 124.832L112.351 129.49L107.669 134.148C106.939 134.874 106.655 135.931 106.922 136.923C107.189 137.913 107.966 138.688 108.963 138.953C109.959 139.218 111.022 138.935 111.751 138.21L116.433 133.551L121.116 138.21C121.845 138.935 122.908 139.218 123.904 138.953C124.9 138.687 125.678 137.913 125.945 136.923C126.212 135.931 125.927 134.874 125.198 134.148L120.515 129.49L125.198 124.832C125.76 124.291 126.077 123.548 126.077 122.77C126.077 121.993 125.76 121.249 125.198 120.708C124.636 120.168 123.878 119.878 123.097 119.905C122.349 119.926 121.638 120.237 121.116 120.771L116.433 125.429L111.75 120.771C111.206 120.215 110.459 119.903 109.68 119.905C109.58 119.9 109.479 119.9 109.379 119.905ZM64.5667 124.712C67.2534 124.712 69.3692 126.818 69.3692 129.49C69.3692 132.163 67.2534 134.268 64.5667 134.268C61.88 134.268 59.7642 132.163 59.7642 129.49C59.7642 126.818 61.88 124.712 64.5667 124.712Z" fill="#5A58F2"/>
</g>
<defs>
<filter id="filter0_d_471_11641" x="0" y="0" width="181" height="194" filterUnits="userSpaceOnUse" color-interpolation-filters="sRGB">
<feFlood flood-opacity="0" result="BackgroundImageFix"/>
<feColorMatrix in="SourceAlpha" type="matrix" values="0 0 0 0 0 0 0 0 0 0 0 0 0 0 0 0 0 0 127 0" result="hardAlpha"/>
<feOffset/>
<feGaussianBlur stdDeviation="27"/>
<feComposite in2="hardAlpha" operator="out"/>
<feColorMatrix type="matrix" values="0 0 0 0 0.385989 0 0 0 0 0.379167 0 0 0 0 1 0 0 0 1 0"/>
<feBlend mode="hard-light" in2="BackgroundImageFix" result="effect1_dropShadow_471_11641"/>
<feBlend mode="normal" in="SourceGraphic" in2="effect1_dropShadow_471_11641" result="shape"/>
</filter>
</defs>
</svg>
